<?xml version="1.0" standalone="no"?>
<!DOCTYPE svg PUBLIC "-//W3C//DTD SVG 20010904//EN"
 "http://www.w3.org/TR/2001/REC-SVG-20010904/DTD/svg10.dtd">
<svg version="1.0" xmlns="http://www.w3.org/2000/svg"
 width="500.000000pt" height="500.000000pt" viewBox="0 0 500.000000 500.000000"
 preserveAspectRatio="xMidYMid meet">

<g transform="translate(0.000000,500.000000) scale(0.100000,-0.100000)"
fill="#000000" stroke="none">
<path d="M2055 4476 c-28 -13 -65 -40 -83 -60 -18 -20 -39 -36 -46 -36 -7 0
-32 -18 -54 -39 -65 -63 -75 -131 -38 -251 8 -25 17 -61 20 -81 4 -21 22 -55
44 -80 35 -42 37 -47 32 -101 -7 -84 -59 -147 -158 -194 -41 -18 -78 -34 -83
-34 -18 0 -159 -75 -159 -85 -1 -5 -30 -28 -66 -50 -36 -22 -72 -47 -80 -57
-20 -21 -37 -88 -89 -343 -28 -141 -51 -227 -69 -262 -31 -62 -32 -73 -7 -105
19 -23 19 -24 0 -48 -26 -34 -24 -59 11 -125 17 -31 30 -65 30 -76 0 -47 139
-139 211 -139 20 0 57 -9 82 -20 l45 -20 7 -75 c5 -50 3 -85 -5 -107 -9 -24
-14 -183 -17 -593 l-5 -560 31 -12 31 -11 0 421 c0 232 3 486 7 564 l6 143 36
22 c63 40 67 41 39 14 -16 -15 -28 -29 -28 -32 0 -9 44 7 73 27 15 11 27 16
27 12 0 -17 -31 -52 -65 -73 l-36 -22 2 -102 c2 -78 -1 -108 -14 -133 -11 -20
-13 -34 -7 -38 6 -4 10 -156 10 -420 l0 -414 58 -26 c92 -42 272 -102 373
-123 152 -32 373 -47 514 -34 149 14 333 51 447 91 85 30 144 37 181 22 35
-13 -226 -113 -398 -153 -114 -26 -466 -36 -613 -18 -301 36 -642 179 -904
377 -85 64 -239 214 -303 293 -173 218 -310 489 -370 733 -133 548 -10 1128
338 1592 167 222 476 459 725 556 15 6 22 17 22 36 1 16 7 45 14 66 13 37 13
37 -8 31 -52 -16 -310 -154 -396 -212 -471 -319 -763 -808 -841 -1408 -17
-133 -7 -419 20 -569 64 -349 236 -701 472 -962 248 -275 620 -499 985 -593
271 -70 617 -79 894 -24 172 34 424 135 576 230 l72 44 110 0 c107 0 111 1
141 29 l31 29 0 1076 0 1077 -25 24 c-20 21 -34 25 -79 25 -53 0 -56 1 -71 34
-12 26 -34 43 -85 70 -37 20 -73 36 -80 36 -7 0 -38 15 -69 34 -157 94 -147
90 -261 91 -58 1 -114 5 -125 9 -11 5 -67 27 -125 49 -58 22 -142 62 -187 89
-86 52 -194 100 -304 137 -74 24 -96 43 -105 88 -5 26 -2 31 26 43 43 18 76
72 89 145 11 63 9 284 -3 303 -4 6 3 30 16 53 17 31 20 43 10 46 -9 3 -11 16
-6 39 4 21 2 34 -4 34 -6 0 -15 24 -21 53 l-11 52 -153 2 c-141 2 -157 0 -202
-21z m317 -40 c13 -20 8 -63 -9 -77 -15 -13 -15 -12 -5 8 7 12 12 30 12 40 0
16 -11 18 -128 17 -109 -1 -133 -4 -169 -22 -23 -12 -45 -26 -48 -32 -4 -6
-31 -28 -60 -50 -61 -45 -76 -67 -86 -125 l-6 -40 -2 43 c-1 60 22 103 73 136
24 15 53 40 64 56 12 16 44 37 74 49 47 18 67 19 168 14 66 -3 118 -11 122
-17z m-122 -115 c19 -5 47 -12 62 -15 28 -6 50 -33 62 -72 5 -16 0 -23 -19
-32 -32 -15 -33 -31 -1 -25 13 3 26 1 29 -4 3 -5 -7 -9 -21 -8 -29 0 -30 -4
-17 -62 7 -28 4 -34 -19 -44 -14 -7 -26 -16 -26 -21 0 -13 34 -9 55 6 18 13
18 26 0 69 -5 12 -2 17 8 17 22 0 31 -56 24 -144 -8 -95 -23 -143 -50 -157
-35 -19 -158 -12 -213 12 -53 22 -104 65 -104 86 0 7 -11 13 -26 13 -36 0 -61
16 -79 50 -19 36 -19 61 -1 85 13 17 17 18 40 6 14 -8 28 -22 32 -33 12 -38
32 -18 39 39 4 34 17 71 31 92 17 25 24 49 24 84 0 40 4 49 23 57 29 12 103
12 147 1z m-219 -473 c33 -49 110 -128 141 -144 15 -8 38 -14 53 -14 35 0 32
-23 -7 -66 l-33 -35 -54 27 c-30 15 -77 49 -104 75 -45 43 -49 51 -43 80 3 17
6 49 6 70 0 48 12 49 41 7z m-45 -186 c35 -32 80 -65 148 -107 14 -9 8 -19
-40 -73 -65 -72 -58 -74 -131 33 -77 114 -80 126 -45 168 20 23 23 22 68 -21z
m332 -68 c3 -47 -10 -117 -23 -120 -6 -1 -25 15 -43 37 l-34 38 38 46 c21 25
43 44 49 42 5 -2 11 -21 13 -43z m-410 -76 c33 -51 77 -111 96 -133 31 -35 37
-38 48 -24 7 8 25 30 39 48 l26 33 15 -24 c13 -20 13 -38 0 -148 -21 -188 -11
-169 -92 -165 -39 2 -74 6 -79 9 -4 3 -37 72 -72 153 -35 82 -80 182 -100 223
l-37 75 42 22 c22 12 44 22 47 23 3 0 33 -42 67 -92z m565 48 l33 -13 13 -122
c8 -67 11 -124 8 -127 -3 -3 -8 11 -12 32 -20 131 -29 170 -38 182 -18 23 -26
12 -29 -40 l-3 -53 -13 55 c-7 30 -15 65 -18 77 -7 27 10 30 59 9z m-78 -133
c8 -49 18 -143 22 -210 l6 -123 -60 0 -60 0 -17 86 c-10 47 -25 116 -35 153
-11 43 -15 75 -9 90 8 23 8 23 34 -8 14 -17 30 -31 34 -31 10 0 36 76 46 135
6 34 8 36 15 17 5 -12 15 -61 24 -109z m-643 25 c59 -119 121 -268 114 -275
-3 -3 -10 5 -15 18 -16 42 -86 182 -119 240 -27 46 -37 56 -53 52 -11 -3 -24
-15 -28 -25 -7 -19 -8 -19 -25 7 -10 15 -16 28 -14 29 30 21 75 46 84 46 6 0
31 -42 56 -92z m908 22 c98 -57 164 -89 264 -127 50 -19 95 -38 99 -43 5 -4
-15 -35 -44 -70 -37 -45 -67 -69 -105 -87 -30 -13 -59 -23 -65 -21 -6 2 8 25
31 51 23 26 39 47 36 47 -4 0 -48 -21 -98 -46 -79 -40 -89 -43 -75 -23 25 34
47 85 53 122 l6 32 -41 -42 c-23 -24 -44 -43 -46 -43 -3 0 -5 21 -5 48 -1 26
-6 60 -13 76 -12 27 -13 24 -30 -65 -10 -52 -21 -97 -25 -101 -5 -5 -16 61
-25 144 -9 84 -20 164 -23 177 -6 21 -4 23 17 16 13 -4 53 -24 89 -45z m-1070
-47 c20 -26 46 -77 126 -248 34 -73 37 -87 35 -160 -1 -44 -6 -116 -12 -160
-12 -90 -28 -132 -29 -75 0 44 -31 156 -76 282 -36 98 -70 161 -59 108 11 -51
33 -225 29 -229 -3 -3 -18 11 -34 30 -16 19 -29 31 -30 27 0 -4 11 -40 24 -80
13 -40 27 -89 31 -107 l7 -35 -25 17 c-51 33 -93 54 -122 60 -30 7 -30 7 13
-31 48 -42 52 -54 20 -51 -51 5 -76 -3 -128 -36 -63 -41 -71 -42 -88 -15 -10
17 -8 27 12 68 14 26 36 106 51 182 79 401 72 381 153 435 37 25 70 45 74 45
3 0 16 -12 28 -27z m1640 -131 c0 -5 -18 -17 -40 -27 -61 -28 -96 -72 -124
-157 -4 -12 -16 -18 -37 -18 -31 0 -32 1 -26 40 8 65 45 128 86 150 37 19 141
28 141 12z m115 -46 c19 -8 35 -18 35 -21 0 -3 -15 -12 -32 -20 -18 -7 -62
-36 -97 -65 -47 -37 -71 -50 -90 -48 -23 3 -26 7 -25 41 2 45 31 81 89 108 49
23 75 23 120 5z m173 -90 c87 -44 122 -100 92 -146 -7 -11 -10 -7 -10 18 0 36
-15 72 -30 72 -6 0 -10 -19 -10 -42 -1 -36 -17 -78 -31 -78 -2 0 -4 24 -4 53
0 28 -4 61 -8 72 -12 30 -27 0 -27 -56 0 -32 -6 -52 -20 -67 -26 -28 -45 -29
-30 -3 13 26 13 94 -1 125 -18 38 -29 21 -29 -43 0 -61 -25 -111 -56 -111 -17
0 -17 -2 1 50 23 66 -1 158 -25 96 -6 -16 -17 -26 -30 -26 -16 0 -20 -7 -20
-30 0 -17 -9 -38 -22 -50 -29 -27 -40 -25 -28 4 5 13 6 33 3 45 -4 15 7 32 47
68 29 26 62 53 74 60 36 21 112 15 164 -11z m-1265 -112 c3 -3 3 -12 0 -20 -4
-10 -23 -14 -67 -14 -33 0 -125 -3 -203 -7 l-141 -6 -6 -111 c-8 -136 -25
-241 -43 -264 -11 -14 -12 -2 -7 78 3 52 9 149 12 215 l7 120 210 5 c116 3
215 7 221 8 6 1 13 -1 17 -4z m941 -41 c-4 -16 -9 -30 -11 -33 -7 -8 -739 -12
-810 -5 -57 6 -63 9 -63 29 0 13 3 26 7 29 3 4 204 7 445 7 l438 0 -6 -27z
m568 10 c37 -33 23 -43 -59 -43 -73 0 -75 1 -60 18 10 10 17 24 17 30 0 19 80
15 102 -5z m-452 -98 c14 -13 36 -12 185 2 100 10 193 13 225 9 l55 -7 -3
-154 -3 -155 -444 0 -445 0 0 155 0 155 188 3 c103 1 196 3 206 5 11 1 27 -5
36 -13z m-458 -142 c-2 -82 -7 -151 -10 -154 -4 -4 -80 -9 -170 -12 -148 -4
-162 -3 -156 12 4 9 11 34 17 57 l10 41 118 -5 119 -5 0 52 0 51 -155 0 -155
0 0 -28 c0 -30 -16 -52 -38 -52 -10 0 -12 6 -7 18 18 43 17 51 -12 65 -25 13
-33 13 -62 1 -18 -8 -35 -14 -37 -14 -7 0 -4 106 3 113 3 4 126 7 272 7 l266
0 -3 -147z m-612 28 c0 -12 -63 -21 -157 -21 -67 0 -83 3 -83 15 0 13 20 15
120 15 66 0 120 -4 120 -9z m-687 -84 c18 -8 38 -22 46 -31 13 -15 11 -16 -26
-10 -26 4 -61 0 -99 -11 -49 -14 -69 -27 -118 -77 -32 -33 -62 -56 -66 -51 -4
4 -12 22 -18 40 -9 27 -8 36 11 60 30 40 63 66 100 80 44 16 131 16 170 0z
m753 -14 c-2 -16 -7 -40 -11 -55 -11 -42 25 -72 79 -65 35 5 38 4 24 -7 -10
-7 -15 -16 -12 -19 3 -3 -12 -15 -33 -25 -27 -14 -46 -35 -63 -66 -13 -25 -24
-46 -25 -46 -2 0 -19 7 -39 15 l-36 15 30 41 c25 35 29 50 27 93 -1 40 4 61
26 99 15 26 30 47 32 47 3 0 3 -12 1 -27z m102 -26 c4 -21 -24 -57 -45 -57
-22 0 -26 28 -8 56 18 28 48 29 53 1z m-804 -52 c20 -8 36 -19 36 -24 0 -5
-23 -11 -50 -13 -81 -8 -163 -87 -176 -170 -4 -21 -9 -38 -13 -38 -3 1 -21 13
-39 29 -31 27 -32 30 -23 70 28 125 152 193 265 146z m1386 -75 c0 -5 -11 -10
-23 -10 -13 0 -52 -9 -86 -20 -261 -86 -432 -314 -432 -577 0 -335 277 -612
612 -613 208 0 437 142 536 335 50 99 66 165 66 275 0 153 -61 296 -181 422
-83 86 -184 146 -287 168 -33 7 -71 16 -85 20 -14 5 128 9 317 9 l342 1 3
-762 c2 -420 2 -764 2 -766 -1 -1 -24 -5 -53 -9 l-51 -6 0 96 c0 131 6 127
-186 127 -88 0 -164 -4 -175 -10 -17 -10 -19 -22 -19 -109 l0 -99 -482 -4
c-266 -3 -487 -3 -491 0 -5 2 -8 313 -7 691 2 651 3 688 21 727 15 32 28 44
59 54 21 7 51 26 66 41 l28 29 253 0 c162 0 253 -4 253 -10z m-1260 -61 c47
-34 111 -76 143 -95 l58 -34 73 40 c40 22 80 40 90 40 23 0 126 -53 154 -80
41 -39 11 -45 -56 -11 -70 36 -72 36 -72 17 0 -8 23 -28 50 -45 28 -17 50 -38
50 -46 0 -20 -2 -19 -60 10 -57 29 -60 29 -60 13 0 -7 20 -26 45 -41 71 -45
52 -66 -25 -27 -53 27 -61 8 -10 -26 65 -43 50 -70 -23 -39 -24 10 -51 13 -81
9 -35 -5 -52 -2 -78 14 -18 11 -76 34 -128 52 -99 34 -308 124 -323 139 -27
27 34 140 87 161 49 20 80 11 166 -51z m1430 -3 c180 -44 307 -141 380 -291
93 -189 92 -337 -4 -519 -172 -328 -632 -387 -881 -113 -64 71 -131 200 -146
282 -30 161 22 338 135 463 136 149 343 220 516 178z m-1106 -372 c23 -9 20
-22 -16 -84 -29 -50 -32 -53 -38 -31 -9 39 -36 50 -61 25 -20 -21 -21 -22 -3
-50 l17 -29 -23 22 c-29 27 -23 54 25 111 36 41 61 50 99 36z m1566 -1016 l0
-98 -140 0 -140 0 -1 33 c-2 50 3 151 7 159 2 3 65 5 139 5 l135 -2 0 -97z
m-730 -107 c47 -4 155 -4 240 -1 152 6 155 6 181 -17 24 -22 32 -23 173 -23
144 0 147 1 172 25 23 23 30 24 72 17 41 -6 47 -11 50 -33 2 -14 -5 -35 -15
-47 l-18 -22 -695 -1 -695 0 -23 26 c-45 53 -33 59 132 67 82 4 151 10 154 13
7 7 169 5 272 -4z"/>
<path d="M2173 4218 c-37 -18 -27 -25 37 -25 63 0 77 11 34 27 -31 12 -43 12
-71 -2z"/>
<path d="M2179 4169 c-17 -15 -19 -19 -7 -15 10 3 21 -2 26 -11 12 -21 42 -10
42 16 0 10 -7 22 -16 25 -21 8 -19 9 -45 -15z"/>
<path d="M1930 4045 c0 -8 2 -15 4 -15 2 0 6 7 10 15 3 8 1 15 -4 15 -6 0 -10
-7 -10 -15z"/>
<path d="M2318 3963 c7 -3 16 -2 19 1 4 3 -2 6 -13 5 -11 0 -14 -3 -6 -6z"/>
<path d="M2982 2872 c-77 -72 -30 -197 73 -197 81 0 133 82 101 158 -30 72
-118 91 -174 39z m126 -32 c28 -26 28 -60 1 -94 -16 -20 -29 -26 -59 -26 -45
0 -70 26 -70 72 0 61 81 91 128 48z"/>
<path d="M3258 2843 c-30 -34 -31 -61 -4 -88 14 -14 34 -25 44 -25 30 0 72 38
72 65 0 53 -79 86 -112 48z m62 -28 c18 -21 5 -47 -22 -43 -26 3 -37 36 -16
49 18 12 24 11 38 -6z"/>
<path d="M3416 2838 c-21 -30 -20 -50 5 -82 23 -29 54 -33 87 -10 28 19 30 74
4 97 -27 25 -78 22 -96 -5z m74 -24 c11 -12 10 -18 -3 -32 -16 -15 -18 -15
-34 0 -13 14 -14 20 -3 32 7 9 16 16 20 16 4 0 13 -7 20 -16z"/>
<path d="M3587 2842 c-25 -27 -22 -78 5 -96 12 -9 30 -16 39 -16 27 0 69 39
69 66 0 54 -78 85 -113 46z m57 -18 c20 -8 21 -43 1 -50 -24 -10 -47 14 -34
37 11 21 11 21 33 13z"/>
<path d="M2963 2376 c-135 -33 -251 -127 -297 -242 -51 -127 -50 -247 3 -351
38 -77 72 -116 145 -170 146 -107 331 -109 487 -3 54 38 112 95 121 121 4 11
10 11 36 0 26 -11 35 -11 47 -1 22 19 19 24 -29 55 -62 39 -86 87 -86 168 0
85 11 108 77 157 29 23 53 47 53 55 0 20 -44 20 -60 0 -17 -21 -27 -19 -33 8
-4 12 -29 48 -57 79 -61 68 -145 113 -240 128 -80 12 -101 12 -167 -4z m202
-67 c58 -27 53 -33 -10 -13 -74 23 -161 14 -240 -25 -73 -36 -122 -88 -163
-171 -23 -46 -27 -67 -26 -135 1 -142 72 -253 197 -310 51 -24 68 -27 145 -23
72 2 97 8 142 32 60 31 113 76 140 119 15 24 19 25 29 13 16 -20 -9 -57 -82
-121 -72 -63 -141 -88 -242 -88 -70 0 -90 4 -147 32 -75 35 -152 112 -189 188
-20 41 -24 63 -24 148 0 93 2 105 34 173 62 133 170 200 324 201 49 1 80 -5
112 -20z m118 -65 c21 -14 36 -28 34 -31 -3 -2 -24 9 -48 26 -51 37 -39 42 14
5z m-184 -3 c9 -6 0 -11 -30 -16 -137 -23 -243 -142 -256 -288 -5 -45 -8 -55
-19 -46 -7 6 -16 35 -20 65 -18 150 107 294 255 294 31 0 62 -4 70 -9z m-35
-213 c15 -38 62 -67 110 -69 11 0 -3 -9 -32 -19 -65 -22 -68 -24 -91 -85 l-19
-49 -6 40 c-10 55 -28 74 -86 94 l-50 17 43 12 c57 17 84 45 93 95 7 44 5 46
38 -36z m217 -158 c7 0 -3 -10 -22 -23 l-34 -23 -26 25 c-25 24 -25 26 -7 33
10 4 21 14 24 23 5 13 10 11 30 -10 13 -14 28 -25 35 -25z"/>
<path d="M2484 4448 c-4 -6 0 -16 9 -23 10 -7 17 -26 17 -42 l0 -30 103 -7
c296 -19 464 -64 732 -197 198 -98 318 -182 461 -324 300 -298 490 -669 556
-1085 17 -111 17 -432 -1 -525 -56 -302 -170 -580 -331 -810 -57 -82 -132
-175 -141 -175 -5 0 -9 -34 -9 -75 0 -41 4 -75 9 -75 4 0 42 35 82 78 252 263
444 673 494 1056 19 143 19 408 0 539 -32 218 -91 406 -195 622 -105 218 -261
421 -450 586 -326 284 -722 453 -1143 488 -162 14 -184 14 -193 -1z"/>
<path d="M2532 4238 c-1 -23 2 -28 8 -18 6 9 10 10 10 3 0 -6 -3 -14 -7 -16
-17 -11 -1 -559 16 -555 3 1 25 -8 48 -20 l41 -22 6 78 c11 130 25 291 37 423
7 70 9 134 6 143 -5 13 -21 16 -85 16 l-79 0 -1 -32z"/>
<path d="M2731 4203 c2 -32 -1 -71 -4 -88 -8 -34 -27 -269 -34 -420 l-4 -100
43 -27 c23 -15 44 -26 45 -24 6 6 41 184 62 311 12 72 26 153 32 180 5 28 16
83 23 122 15 83 21 75 -78 92 -91 17 -88 19 -85 -46z"/>
<path d="M4090 4235 c-25 -9 -70 -19 -100 -23 l-55 -7 -3 -58 c-2 -31 -1 -57
2 -57 3 0 27 13 53 29 73 45 97 48 127 16 14 -15 26 -36 28 -48 3 -20 9 -22
68 -22 l64 0 7 33 c7 37 35 72 56 72 8 0 31 -18 53 -40 58 -59 67 -54 69 35 1
41 0 75 -1 76 -2 0 -75 2 -163 5 -124 3 -170 0 -205 -11z"/>
<path d="M2930 4188 c0 -34 -3 -51 -50 -303 -29 -158 -47 -264 -54 -328 -4
-33 18 -72 35 -61 5 3 9 0 9 -5 0 -6 8 -11 18 -11 15 0 25 23 51 113 18 61 41
135 51 162 19 52 35 115 45 175 4 19 10 46 15 60 4 14 15 52 25 85 9 33 20 68
26 78 10 19 3 23 -88 51 -75 23 -83 21 -83 -16z m-60 -643 c0 -2 -10 -9 -22
-15 -22 -11 -22 -10 -4 4 21 17 26 19 26 11z"/>
<path d="M3126 4163 c-3 -4 -6 -15 -6 -25 0 -19 -22 -117 -59 -267 l-19 -73
34 5 c18 3 49 13 68 22 36 17 50 43 76 147 13 49 30 56 30 13 0 -13 5 -27 10
-30 6 -3 10 2 10 13 0 10 11 40 24 66 l24 47 -49 25 c-27 13 -49 21 -49 17 0
-5 -4 -3 -8 2 -11 15 -79 45 -86 38z"/>
<path d="M1722 4108 c-18 -9 -22 -17 -17 -36 5 -21 74 -164 116 -242 17 -31
45 -28 53 6 5 19 0 33 -23 59 -31 36 -67 121 -77 185 -7 42 -14 46 -52 28z"/>
<path d="M1635 4059 c-116 -61 -122 -70 -80 -131 14 -20 25 -41 25 -46 0 -5
21 -40 46 -77 25 -38 52 -82 61 -99 9 -17 17 -32 18 -34 2 -2 26 8 54 23 79
40 82 58 23 169 -27 50 -59 119 -73 154 -13 34 -26 62 -29 62 -3 0 -23 -9 -45
-21z"/>
<path d="M3320 4036 c-6 -18 -19 -50 -30 -71 -11 -22 -20 -48 -20 -60 0 -36
35 -80 73 -92 l36 -11 18 47 c9 25 25 60 35 76 10 17 18 39 19 50 0 11 3 15 5
8 3 -7 12 -9 20 -6 20 8 17 -7 -9 -47 -29 -44 -67 -117 -67 -130 0 -6 12 -10
26 -10 42 0 22 -24 -27 -33 l-45 -8 -59 -119 c-51 -99 -61 -114 -68 -96 -8 19
-10 16 -24 -22 -8 -24 -12 -46 -9 -49 3 -3 -1 -12 -9 -20 -24 -24 -17 -33 24
-33 21 0 51 -2 67 -5 33 -6 19 -24 201 249 62 93 115 178 119 188 3 10 9 18
14 18 4 0 10 6 13 14 4 9 -16 29 -56 57 -34 24 -64 45 -67 48 -15 17 -91 51
-100 46 -6 -4 -9 -1 -8 6 2 6 -11 18 -29 25 -31 13 -32 13 -43 -20z"/>
<path d="M4160 4013 c-1 -5 -1 -75 0 -158 l1 -150 49 -74 50 -74 0 231 0 232
-50 0 c-27 0 -50 -3 -50 -7z"/>
<path d="M1472 3960 c-20 -12 -30 -25 -26 -32 4 -7 3 -8 -5 -4 -11 7 -81 -31
-81 -44 0 -3 15 -24 33 -47 17 -23 61 -84 96 -136 l64 -94 61 30 c34 17 62 31
64 32 2 2 -23 45 -54 96 -31 52 -71 122 -88 156 l-32 62 -32 -19z"/>
<path d="M2492 3893 c-6 -16 -17 -45 -24 -67 -7 -22 -30 -53 -52 -72 l-39 -34
37 -15 c20 -9 50 -18 66 -21 l28 -6 1 121 c1 67 -1 121 -3 121 -2 0 -8 -12
-14 -27z"/>
<path d="M1305 3834 c-22 -20 -39 -40 -37 -45 1 -5 -4 -8 -10 -6 -7 1 -12 -4
-10 -11 1 -8 -2 -11 -7 -8 -5 3 -14 -1 -21 -9 -13 -16 -1 -34 61 -95 8 -8 41
-48 73 -87 l58 -73 54 43 c30 23 52 47 50 52 -2 6 -30 51 -62 99 -33 48 -67
100 -76 114 -9 15 -21 32 -27 38 -5 7 -7 15 -4 18 4 3 4 6 2 6 -2 -1 -22 -17
-44 -36z"/>
<path d="M3616 3817 c-16 -28 -87 -138 -157 -244 l-128 -191 29 -12 c15 -6 37
-20 48 -31 25 -22 17 -29 127 106 44 54 110 134 147 177 74 87 91 112 80 122
-3 4 2 4 13 1 11 -4 -4 16 -34 44 -30 28 -59 47 -65 44 -6 -3 -8 -3 -4 2 8 8
-9 35 -21 35 -3 0 -19 -24 -35 -53z"/>
<path d="M3014 3762 c3 -5 -4 -43 -15 -86 -11 -42 -17 -81 -14 -86 3 -4 2 -10
-2 -12 -14 -6 -42 -108 -29 -105 6 1 10 -4 9 -10 -2 -7 4 -13 13 -13 9 0 28
-9 43 -19 38 -27 78 -36 96 -21 8 7 22 38 31 69 9 31 27 74 40 96 21 37 22 44
11 77 -19 55 -44 76 -115 98 -73 23 -75 23 -68 12z"/>
<path d="M3770 3682 c-19 -25 -40 -50 -45 -56 -6 -6 -54 -65 -107 -131 -53
-66 -110 -133 -127 -149 -17 -17 -31 -33 -31 -36 0 -3 27 -19 60 -35 l61 -29
62 62 c58 58 60 62 35 62 -15 0 -30 5 -33 10 -4 6 10 10 34 10 48 0 78 32 87
92 8 47 24 60 24 19 0 -17 4 -31 8 -31 4 0 34 27 66 59 l59 59 -19 24 c-11 14
-37 45 -59 70 l-40 45 -35 -45z"/>
<path d="M1170 3705 c-6 -8 -9 -19 -6 -24 4 -5 1 -13 -5 -17 -8 -5 -10 -2 -5
7 4 8 1 6 -7 -3 -8 -10 -18 -14 -22 -10 -5 4 -5 1 -1 -6 4 -7 1 -15 -8 -18 -8
-3 -22 -16 -30 -29 -15 -22 -12 -26 98 -141 106 -110 114 -116 120 -93 11 38
38 99 45 99 3 0 12 4 20 9 10 7 -9 36 -83 125 -53 64 -98 116 -100 116 -2 0
-9 -7 -16 -15z"/>
<path d="M3284 3685 c-9 -13 -14 -28 -12 -33 1 -5 10 6 19 24 19 40 16 44 -7
9z"/>
<path d="M1008 3495 c-25 -38 -49 -80 -53 -92 -3 -13 -10 -23 -15 -23 -4 0
-10 -9 -13 -21 -4 -15 5 -32 34 -61 37 -37 48 -58 32 -58 -4 0 -26 18 -49 41
l-41 40 -28 -58 c-39 -81 -75 -173 -67 -171 12 2 46 -15 86 -44 21 -15 43 -28
47 -28 10 0 122 -67 197 -118 28 -19 55 -33 58 -29 7 7 34 143 34 173 0 14
-14 31 -41 48 -51 34 -45 44 10 16 47 -24 44 -28 61 75 6 39 16 83 21 99 10
33 5 39 -141 191 l-87 91 -45 -71z m147 -108 c4 -21 16 -33 48 -46 l42 -18
-40 -17 c-47 -20 -55 -30 -55 -73 0 -46 -17 -50 -29 -6 -15 54 -36 79 -71 86
-36 8 -40 25 -5 25 46 0 72 26 80 84 7 50 8 51 16 23 4 -16 11 -43 14 -58z"/>
<path d="M3914 3547 c-5 -7 -31 -30 -57 -52 -26 -22 -49 -45 -51 -52 -8 -20
34 -53 66 -53 41 0 34 -18 -11 -30 -46 -12 -56 -23 -65 -72 -9 -49 -22 -48
-30 1 -11 68 -28 70 -93 11 -32 -29 -58 -56 -58 -59 0 -3 23 -27 51 -53 49
-46 74 -59 74 -39 0 12 100 -24 118 -42 17 -18 31 -79 32 -140 l0 -47 38 20
c20 11 81 48 136 81 121 74 151 74 35 -1 -46 -29 -99 -66 -117 -82 -18 -15
-39 -28 -47 -28 -28 0 -45 -31 -45 -80 0 -57 10 -67 47 -46 54 29 129 64 220
101 106 43 102 26 50 180 -52 160 -237 495 -272 494 -5 0 -15 -5 -21 -12z
m106 -172 c0 -7 -82 -65 -92 -65 -6 0 9 16 32 35 38 32 60 43 60 30z m-30
-189 c0 -2 -8 -10 -17 -17 -16 -13 -17 -12 -4 4 13 16 21 21 21 13z"/>
<path d="M791 3057 c-5 -13 -14 -43 -21 -68 -6 -24 -18 -66 -26 -94 -8 -27
-17 -71 -20 -97 -6 -46 -6 -47 22 -53 44 -10 308 -97 320 -106 6 -5 26 7 49
31 21 22 37 41 34 42 -2 2 -13 9 -24 16 -20 12 -62 32 -231 112 -94 45 -137
70 -131 77 3 2 24 -5 48 -16 24 -11 69 -29 99 -41 30 -12 92 -40 137 -61 44
-21 86 -39 92 -39 14 0 33 48 25 61 -3 6 -22 21 -42 35 -21 13 -64 47 -97 75
-33 27 -87 65 -121 84 -34 19 -67 41 -74 50 -17 21 -29 19 -39 -8z"/>
<path d="M4160 2866 c-52 -24 -122 -57 -155 -73 -33 -17 -66 -32 -73 -34 -8
-3 5 -21 32 -48 l45 -44 73 23 c40 12 88 25 106 27 18 3 35 9 38 14 9 15 44
10 44 -5 0 -8 5 -18 11 -22 13 -7 7 49 -14 148 l-12 57 -95 -43z"/>
<path d="M3880 2640 l0 -75 63 -50 c34 -27 64 -52 67 -55 3 -3 47 -43 98 -89
l92 -83 1 -167 c1 -91 4 -177 8 -191 7 -22 10 -19 24 30 8 30 23 98 33 150 9
52 21 104 25 115 5 11 14 35 19 54 9 33 8 36 -43 84 -28 27 -104 94 -167 150
-63 55 -139 123 -167 151 l-53 50 0 -74z"/>
<path d="M697 2558 c-3 -51 -3 -127 1 -170 l7 -76 75 60 c62 50 161 134 228
193 10 9 -8 16 -80 29 -51 10 -120 27 -152 37 -33 10 -62 19 -66 19 -4 0 -10
-42 -13 -92z"/>
<path d="M4260 2641 c-8 -5 -48 -16 -87 -26 -40 -9 -73 -21 -73 -25 0 -4 17
-22 38 -40 20 -18 65 -59 98 -91 34 -33 65 -59 68 -59 8 0 8 145 0 204 -7 46
-15 53 -44 37z"/>
<path d="M1029 2509 c-89 -80 -231 -198 -258 -216 -2 -1 10 -19 27 -39 29 -35
33 -64 9 -64 -6 0 -31 19 -54 42 -29 28 -43 37 -43 26 0 -20 36 -197 52 -252
25 -90 145 -392 153 -384 2 2 6 152 9 333 l4 329 59 56 c32 30 88 82 124 115
l66 60 -11 48 c-6 26 -13 47 -17 47 -3 0 -57 -46 -120 -101z"/>
<path d="M1180 2390 c0 -27 3 -30 30 -30 17 0 30 5 30 11 0 23 -22 49 -40 49
-16 0 -20 -7 -20 -30z"/>
<path d="M3882 2388 c3 -29 6 -33 33 -33 27 0 30 4 33 33 3 31 2 32 -33 32
-35 0 -36 -1 -33 -32z"/>
<path d="M1180 2316 c0 -33 2 -36 31 -36 28 0 30 2 27 33 -2 27 -8 33 -30 35
-26 3 -28 1 -28 -32z"/>
<path d="M1254 2336 c-10 -26 1 -51 24 -54 18 -3 22 1 22 22 0 30 -37 56 -46
32z"/>
<path d="M3887 2333 c-4 -3 -7 -19 -7 -35 0 -25 3 -28 35 -28 33 0 35 2 35 35
0 32 -3 35 -28 35 -16 0 -32 -3 -35 -7z"/>
<path d="M1542 2185 c0 -16 2 -22 5 -12 2 9 2 23 0 30 -3 6 -5 -1 -5 -18z"/>
<path d="M1092 2163 l-33 -4 3 -57 3 -57 78 -3 78 -3 -3 63 -3 63 -45 1 c-25
1 -60 -1 -78 -3z"/>
<path d="M1286 2163 l-39 -4 7 -46 c3 -25 6 -52 6 -59 0 -11 18 -14 75 -14
l75 0 0 65 0 65 -42 -2 c-24 -1 -60 -3 -82 -5z"/>
<path d="M3910 2095 l0 -65 80 0 80 0 0 65 0 65 -80 0 -80 0 0 -65z"/>
<path d="M1062 1953 l3 -58 78 -3 77 -3 0 61 0 60 -80 0 -81 0 3 -57z"/>
<path d="M1260 1956 c0 -30 4 -56 10 -58 5 -1 39 -1 75 0 l65 4 0 54 0 54 -75
0 -75 0 0 -54z"/>
<path d="M3910 1946 c0 -49 2 -54 25 -60 13 -3 49 -3 80 0 l55 7 0 53 0 54
-80 0 -80 0 0 -54z"/>
<path d="M1062 1728 l3 -63 78 -3 77 -3 0 66 0 65 -80 0 -81 0 3 -62z"/>
<path d="M1260 1725 l0 -65 75 0 75 0 0 65 0 65 -75 0 -75 0 0 -65z"/>
<path d="M3910 1726 c0 -85 1 -86 86 -86 l74 0 0 70 0 70 -80 0 -80 0 0 -54z"/>
<path d="M1064 1616 c-3 -7 -4 -33 -2 -57 l3 -44 78 -3 77 -3 0 61 0 60 -75 0
c-55 0 -77 -4 -81 -14z"/>
<path d="M1254 1585 c-9 -65 -2 -75 49 -75 25 0 59 3 76 6 30 6 31 8 31 60 l0
54 -74 0 -75 0 -7 -45z"/>
<path d="M3870 1600 c0 -5 5 -10 10 -10 6 0 10 5 10 10 0 6 -4 10 -10 10 -5 0
-10 -4 -10 -10z"/>
<path d="M3910 1561 l0 -49 43 -3 c62 -5 69 -3 95 36 38 59 33 65 -58 65 l-80
0 0 -49z"/>
<path d="M1260 1335 l0 -65 75 0 75 0 0 65 0 65 -75 0 -75 0 0 -65z"/>
<path d="M1079 1373 c25 -44 91 -103 116 -103 24 0 25 2 25 60 l0 60 -75 0
c-69 0 -75 -2 -66 -17z"/>
<path d="M3880 1350 c0 -16 1 -30 3 -30 2 0 13 14 25 30 l23 30 -26 0 c-21 0
-25 -5 -25 -30z"/>
<path d="M1273 1243 c-20 -7 -16 -68 6 -87 14 -13 33 -16 77 -14 l59 3 3 46 3
46 -47 7 c-53 7 -83 7 -101 -1z"/>
</g>
</svg>
